<?xml version="1.0" encoding="iso-8859-1"?>
<!-- Generator: Adobe Illustrator 19.1.0, SVG Export Plug-In . SVG Version: 6.00 Build 0)  -->
<svg xmlns="http://www.w3.org/2000/svg" xmlns:xlink="http://www.w3.org/1999/xlink" version="1.1" id="Capa_1" x="0px" y="0px" viewBox="0 0 489.296 489.296" style="enable-background:new 0 0 489.296 489.296;" xml:space="preserve" width="512px" height="512px">
<g>
	<g>
		<path d="M199.984,318.848L199.984,318.848v-15.4c0,0,48.7,1.5,71.8-22.1c0,0-33.6-9.5-27.6-70.8c6-61.2-7.5-115-56.8-110.5    c0,0-21.3-25.7-63.8-9.5c-14.6,5.5-53.7,19.6-51.7,104.4s-30.2,85.3-30.2,85.3s16.6,24.1,72.8,23.6v15.8l42.7,124.9l42.7-124.6    L199.984,318.848z" fill="#fff"/>
		<path d="M306.184,398.848c-2.8-15.4-12.7-28.6-26.8-35.5l-53.8-26.5c-3.1-1.5-6.1-3.2-9.1-4.9l17,50.1l-23.7-1.8l-52.3,64.4    l-52.3-64.4l-23.7,1.8l17.3-50.1l-10.8,5.5l-52.5,25.9c-14,6.9-24,20.1-26.8,35.5l-8.6,47.5c-0.6,3.5,2.1,6.7,5.6,6.7h149.8h4    h149.8c3.6,0,6.2-3.2,5.6-6.7L306.184,398.848z" fill="#fff"/>
		<path d="M458.084,67.448c-41.6-41.6-109-41.6-150.6,0c-40,40-41.5,104-4.5,145.9l1.1,0.9c-4,8.7-10.9,19.4-21.9,24.8    c-3.6,1.8-2.8,7.2,1.2,7.8c12,1.9,29.2-0.2,45.3-12.4l0.2,0.2c40.8,24,94.2,18.5,129.3-16.6    C499.684,176.448,499.684,109.048,458.084,67.448z M382.784,224.148c-45,0-81.4-36.5-81.4-81.4c0-45,36.5-81.4,81.4-81.4    c45,0,81.4,36.5,81.4,81.4C464.184,187.748,427.784,224.148,382.784,224.148z" fill="#fff"/>
		<path d="M398.984,137.448c-4.6-2.5-9.5-4.5-14.3-6.5c-2.8-1.2-5.5-2.5-7.8-4.4c-4.7-3.7-3.8-9.8,1.7-12.1c1.5-0.7,3.2-0.9,4.8-1    c6.3-0.3,12.3,0.8,18.1,3.6c2.8,1.4,3.8,0.9,4.8-2c1-3.1,1.9-6.3,2.8-9.5c0.6-2.1-0.1-3.5-2.2-4.4c-3.7-1.6-7.4-2.8-11.4-3.4    c-5.2-0.8-5.2-0.8-5.2-6c0-7.3,0-7.3-7.4-7.3c-1.1,0-2.1,0-3.2,0c-3.4,0.1-4,0.7-4.1,4.2c0,1.6,0,3.1,0,4.7c0,4.6,0,4.5-4.4,6.1    c-10.6,3.9-17.2,11.1-17.9,22.7c-0.6,10.3,4.7,17.2,13.2,22.2c5.2,3.1,10.9,5,16.4,7.4c2.1,0.9,4.2,2,6,3.5    c5.3,4.4,4.3,11.6-2,14.4c-3.4,1.5-6.9,1.8-10.6,1.4c-5.6-0.7-11-2.2-16.1-4.8c-3-1.5-3.8-1.1-4.8,2.1c-0.9,2.8-1.6,5.6-2.4,8.4    c-1,3.8-0.7,4.7,2.9,6.4c4.6,2.2,9.5,3.4,14.5,4.2c3.9,0.6,4,0.8,4.1,4.9c0,1.8,0,3.7,0.1,5.5c0,2.3,1.1,3.7,3.5,3.7    c2.7,0.1,5.4,0.1,8.1,0c2.2-0.1,3.4-1.3,3.4-3.5c0-2.5,0.1-5,0-7.6s1-3.9,3.5-4.5c5.7-1.6,10.5-4.6,14.2-9.1    C417.584,163.948,413.684,145.548,398.984,137.448z" fill="#fff"/>
	</g>
</g>
<g>
</g>
<g>
</g>
<g>
</g>
<g>
</g>
<g>
</g>
<g>
</g>
<g>
</g>
<g>
</g>
<g>
</g>
<g>
</g>
<g>
</g>
<g>
</g>
<g>
</g>
<g>
</g>
<g>
</g>
</svg>
